<mxfile host="app.diagrams.net" agent="Mozilla/5.0 (Windows NT 10.0; Win64; x64) AppleWebKit/537.36 (KHTML, like Gecko) Chrome/136.0.0.0 Safari/537.36" version="27.0.6">
  <diagram name="第 1 页" id="BEbtkPBNiyQytsKEgz7A">
    <mxGraphModel dx="1222" dy="934" grid="1" gridSize="10" guides="1" tooltips="1" connect="1" arrows="1" fold="1" page="1" pageScale="1" pageWidth="827" pageHeight="1169" math="0" shadow="0">
      <root>
        <mxCell id="0" />
        <mxCell id="1" parent="0" />
        <mxCell id="YYvj3fiJszDH4ES1wDcn-3" value="" style="shape=folder;fontStyle=1;spacingTop=10;tabWidth=40;tabHeight=14;tabPosition=left;html=1;whiteSpace=wrap;" vertex="1" parent="1">
          <mxGeometry x="60" y="80" width="160" height="190" as="geometry" />
        </mxCell>
        <mxCell id="YYvj3fiJszDH4ES1wDcn-4" value="Auth" style="text;align=center;fontStyle=1;verticalAlign=middle;spacingLeft=3;spacingRight=3;strokeColor=none;rotatable=0;points=[[0,0.5],[1,0.5]];portConstraint=eastwest;html=1;" vertex="1" parent="1">
          <mxGeometry x="100" y="100" width="80" height="26" as="geometry" />
        </mxCell>
        <mxCell id="YYvj3fiJszDH4ES1wDcn-5" value="Google_Auth" style="shape=folder;fontStyle=1;spacingTop=10;tabWidth=40;tabHeight=14;tabPosition=left;html=1;whiteSpace=wrap;" vertex="1" parent="1">
          <mxGeometry x="75" y="130" width="125" height="50" as="geometry" />
        </mxCell>
        <mxCell id="YYvj3fiJszDH4ES1wDcn-6" value="User_Login" style="shape=folder;fontStyle=1;spacingTop=10;tabWidth=40;tabHeight=14;tabPosition=left;html=1;whiteSpace=wrap;" vertex="1" parent="1">
          <mxGeometry x="75" y="200" width="125" height="50" as="geometry" />
        </mxCell>
        <mxCell id="YYvj3fiJszDH4ES1wDcn-7" value="" style="shape=folder;fontStyle=1;spacingTop=10;tabWidth=40;tabHeight=14;tabPosition=left;html=1;whiteSpace=wrap;" vertex="1" parent="1">
          <mxGeometry x="332.5" y="70" width="177.5" height="180" as="geometry" />
        </mxCell>
        <mxCell id="YYvj3fiJszDH4ES1wDcn-8" value="User_Profile" style="text;align=center;fontStyle=1;verticalAlign=middle;spacingLeft=3;spacingRight=3;strokeColor=none;rotatable=0;points=[[0,0.5],[1,0.5]];portConstraint=eastwest;html=1;" vertex="1" parent="1">
          <mxGeometry x="377.5" y="90" width="80" height="26" as="geometry" />
        </mxCell>
        <mxCell id="YYvj3fiJszDH4ES1wDcn-9" value="View_Profile" style="shape=folder;fontStyle=1;spacingTop=10;tabWidth=40;tabHeight=14;tabPosition=left;html=1;whiteSpace=wrap;" vertex="1" parent="1">
          <mxGeometry x="345" y="120" width="145" height="40" as="geometry" />
        </mxCell>
        <mxCell id="YYvj3fiJszDH4ES1wDcn-10" value="Edit_Profile" style="shape=folder;fontStyle=1;spacingTop=10;tabWidth=40;tabHeight=14;tabPosition=left;html=1;whiteSpace=wrap;" vertex="1" parent="1">
          <mxGeometry x="345" y="180" width="145" height="50" as="geometry" />
        </mxCell>
        <mxCell id="YYvj3fiJszDH4ES1wDcn-11" value="" style="shape=folder;fontStyle=1;spacingTop=10;tabWidth=40;tabHeight=14;tabPosition=left;html=1;whiteSpace=wrap;" vertex="1" parent="1">
          <mxGeometry x="290" y="320" width="160" height="330" as="geometry" />
        </mxCell>
        <mxCell id="YYvj3fiJszDH4ES1wDcn-12" value="Favorite_Places" style="text;align=center;fontStyle=1;verticalAlign=middle;spacingLeft=3;spacingRight=3;strokeColor=none;rotatable=0;points=[[0,0.5],[1,0.5]];portConstraint=eastwest;html=1;" vertex="1" parent="1">
          <mxGeometry x="330" y="340" width="80" height="26" as="geometry" />
        </mxCell>
        <mxCell id="YYvj3fiJszDH4ES1wDcn-13" value="Add_Favorite" style="shape=folder;fontStyle=1;spacingTop=10;tabWidth=40;tabHeight=14;tabPosition=left;html=1;whiteSpace=wrap;" vertex="1" parent="1">
          <mxGeometry x="305" y="370" width="135" height="50" as="geometry" />
        </mxCell>
        <mxCell id="YYvj3fiJszDH4ES1wDcn-14" value="Delete_Favorite" style="shape=folder;fontStyle=1;spacingTop=10;tabWidth=40;tabHeight=14;tabPosition=left;html=1;whiteSpace=wrap;" vertex="1" parent="1">
          <mxGeometry x="305" y="440" width="135" height="50" as="geometry" />
        </mxCell>
        <mxCell id="YYvj3fiJszDH4ES1wDcn-15" value="" style="shape=folder;fontStyle=1;spacingTop=10;tabWidth=40;tabHeight=14;tabPosition=left;html=1;whiteSpace=wrap;" vertex="1" parent="1">
          <mxGeometry x="20" y="350" width="160" height="110" as="geometry" />
        </mxCell>
        <mxCell id="YYvj3fiJszDH4ES1wDcn-16" value="Search" style="text;align=center;fontStyle=1;verticalAlign=middle;spacingLeft=3;spacingRight=3;strokeColor=none;rotatable=0;points=[[0,0.5],[1,0.5]];portConstraint=eastwest;html=1;" vertex="1" parent="1">
          <mxGeometry x="60" y="370" width="80" height="26" as="geometry" />
        </mxCell>
        <mxCell id="YYvj3fiJszDH4ES1wDcn-17" value="Keyword_Search" style="shape=folder;fontStyle=1;spacingTop=10;tabWidth=40;tabHeight=14;tabPosition=left;html=1;whiteSpace=wrap;" vertex="1" parent="1">
          <mxGeometry x="32.5" y="396" width="135" height="50" as="geometry" />
        </mxCell>
        <mxCell id="YYvj3fiJszDH4ES1wDcn-19" value="" style="shape=folder;fontStyle=1;spacingTop=10;tabWidth=40;tabHeight=14;tabPosition=left;html=1;whiteSpace=wrap;" vertex="1" parent="1">
          <mxGeometry x="90" y="580" width="160" height="190" as="geometry" />
        </mxCell>
        <mxCell id="YYvj3fiJszDH4ES1wDcn-20" value="Common" style="text;align=center;fontStyle=1;verticalAlign=middle;spacingLeft=3;spacingRight=3;strokeColor=none;rotatable=0;points=[[0,0.5],[1,0.5]];portConstraint=eastwest;html=1;" vertex="1" parent="1">
          <mxGeometry x="130" y="600" width="80" height="26" as="geometry" />
        </mxCell>
        <mxCell id="YYvj3fiJszDH4ES1wDcn-21" value="Urls" style="shape=folder;fontStyle=1;spacingTop=10;tabWidth=40;tabHeight=14;tabPosition=left;html=1;whiteSpace=wrap;" vertex="1" parent="1">
          <mxGeometry x="105" y="626" width="130" height="54" as="geometry" />
        </mxCell>
        <mxCell id="YYvj3fiJszDH4ES1wDcn-22" value="Constants" style="shape=folder;fontStyle=1;spacingTop=10;tabWidth=40;tabHeight=14;tabPosition=left;html=1;whiteSpace=wrap;" vertex="1" parent="1">
          <mxGeometry x="102.5" y="696" width="130" height="54" as="geometry" />
        </mxCell>
        <mxCell id="YYvj3fiJszDH4ES1wDcn-23" value="" style="shape=folder;fontStyle=1;spacingTop=10;tabWidth=40;tabHeight=14;tabPosition=left;html=1;whiteSpace=wrap;" vertex="1" parent="1">
          <mxGeometry x="320" y="770" width="160" height="160" as="geometry" />
        </mxCell>
        <mxCell id="YYvj3fiJszDH4ES1wDcn-24" value="Data" style="text;align=center;fontStyle=1;verticalAlign=middle;spacingLeft=3;spacingRight=3;strokeColor=none;rotatable=0;points=[[0,0.5],[1,0.5]];portConstraint=eastwest;html=1;" vertex="1" parent="1">
          <mxGeometry x="350" y="790" width="80" height="26" as="geometry" />
        </mxCell>
        <mxCell id="YYvj3fiJszDH4ES1wDcn-25" value="Repository" style="shape=folder;fontStyle=1;spacingTop=10;tabWidth=40;tabHeight=14;tabPosition=left;html=1;whiteSpace=wrap;" vertex="1" parent="1">
          <mxGeometry x="332.5" y="810" width="137.5" height="40" as="geometry" />
        </mxCell>
        <mxCell id="YYvj3fiJszDH4ES1wDcn-26" value="Api_Service" style="shape=folder;fontStyle=1;spacingTop=10;tabWidth=40;tabHeight=14;tabPosition=left;html=1;whiteSpace=wrap;" vertex="1" parent="1">
          <mxGeometry x="331.25" y="870" width="137.5" height="40" as="geometry" />
        </mxCell>
        <mxCell id="YYvj3fiJszDH4ES1wDcn-27" value="" style="shape=folder;fontStyle=1;spacingTop=10;tabWidth=40;tabHeight=14;tabPosition=left;html=1;whiteSpace=wrap;" vertex="1" parent="1">
          <mxGeometry x="582.5" y="755" width="160" height="190" as="geometry" />
        </mxCell>
        <mxCell id="YYvj3fiJszDH4ES1wDcn-28" value="UI" style="text;align=center;fontStyle=1;verticalAlign=middle;spacingLeft=3;spacingRight=3;strokeColor=none;rotatable=0;points=[[0,0.5],[1,0.5]];portConstraint=eastwest;html=1;" vertex="1" parent="1">
          <mxGeometry x="622.5" y="775" width="80" height="26" as="geometry" />
        </mxCell>
        <mxCell id="YYvj3fiJszDH4ES1wDcn-29" value="Companents" style="shape=folder;fontStyle=1;spacingTop=10;tabWidth=40;tabHeight=14;tabPosition=left;html=1;whiteSpace=wrap;" vertex="1" parent="1">
          <mxGeometry x="597.5" y="805" width="135" height="50" as="geometry" />
        </mxCell>
        <mxCell id="YYvj3fiJszDH4ES1wDcn-30" value="Theme" style="shape=folder;fontStyle=1;spacingTop=10;tabWidth=40;tabHeight=14;tabPosition=left;html=1;whiteSpace=wrap;" vertex="1" parent="1">
          <mxGeometry x="597.5" y="875" width="135" height="50" as="geometry" />
        </mxCell>
        <mxCell id="YYvj3fiJszDH4ES1wDcn-64" style="edgeStyle=orthogonalEdgeStyle;rounded=0;orthogonalLoop=1;jettySize=auto;html=1;" edge="1" parent="1" source="YYvj3fiJszDH4ES1wDcn-31">
          <mxGeometry relative="1" as="geometry">
            <mxPoint x="460" y="520" as="targetPoint" />
          </mxGeometry>
        </mxCell>
        <mxCell id="YYvj3fiJszDH4ES1wDcn-31" value="" style="shape=folder;fontStyle=1;spacingTop=10;tabWidth=40;tabHeight=14;tabPosition=left;html=1;whiteSpace=wrap;" vertex="1" parent="1">
          <mxGeometry x="580" y="360" width="160" height="320" as="geometry" />
        </mxCell>
        <mxCell id="YYvj3fiJszDH4ES1wDcn-32" value="Trip_Management" style="text;align=center;fontStyle=1;verticalAlign=middle;spacingLeft=3;spacingRight=3;strokeColor=none;rotatable=0;points=[[0,0.5],[1,0.5]];portConstraint=eastwest;html=1;" vertex="1" parent="1">
          <mxGeometry x="620" y="380" width="80" height="26" as="geometry" />
        </mxCell>
        <mxCell id="YYvj3fiJszDH4ES1wDcn-35" value="" style="shape=folder;fontStyle=1;spacingTop=10;tabWidth=40;tabHeight=14;tabPosition=left;html=1;whiteSpace=wrap;" vertex="1" parent="1">
          <mxGeometry x="580" y="40" width="160" height="260" as="geometry" />
        </mxCell>
        <mxCell id="YYvj3fiJszDH4ES1wDcn-36" value="Ai_Features" style="text;align=center;fontStyle=1;verticalAlign=middle;spacingLeft=3;spacingRight=3;strokeColor=none;rotatable=0;points=[[0,0.5],[1,0.5]];portConstraint=eastwest;html=1;" vertex="1" parent="1">
          <mxGeometry x="620" y="60" width="80" height="26" as="geometry" />
        </mxCell>
        <mxCell id="YYvj3fiJszDH4ES1wDcn-37" value="Metro_Assistant" style="shape=folder;fontStyle=1;spacingTop=10;tabWidth=40;tabHeight=14;tabPosition=left;html=1;whiteSpace=wrap;" vertex="1" parent="1">
          <mxGeometry x="595" y="90" width="130" height="50" as="geometry" />
        </mxCell>
        <mxCell id="YYvj3fiJszDH4ES1wDcn-38" value="Route_Planning" style="shape=folder;fontStyle=1;spacingTop=10;tabWidth=40;tabHeight=14;tabPosition=left;html=1;whiteSpace=wrap;" vertex="1" parent="1">
          <mxGeometry x="595" y="160" width="130" height="50" as="geometry" />
        </mxCell>
        <mxCell id="YYvj3fiJszDH4ES1wDcn-40" value="Edit_Favorite" style="shape=folder;fontStyle=1;spacingTop=10;tabWidth=40;tabHeight=14;tabPosition=left;html=1;whiteSpace=wrap;" vertex="1" parent="1">
          <mxGeometry x="305" y="510" width="135" height="50" as="geometry" />
        </mxCell>
        <mxCell id="YYvj3fiJszDH4ES1wDcn-41" value="View_Favorite" style="shape=folder;fontStyle=1;spacingTop=10;tabWidth=40;tabHeight=14;tabPosition=left;html=1;whiteSpace=wrap;" vertex="1" parent="1">
          <mxGeometry x="305" y="580" width="135" height="50" as="geometry" />
        </mxCell>
        <mxCell id="YYvj3fiJszDH4ES1wDcn-43" value="Trip_Planning" style="shape=folder;fontStyle=1;spacingTop=10;tabWidth=40;tabHeight=14;tabPosition=left;html=1;whiteSpace=wrap;" vertex="1" parent="1">
          <mxGeometry x="595" y="230" width="130" height="50" as="geometry" />
        </mxCell>
        <mxCell id="YYvj3fiJszDH4ES1wDcn-44" value="Add_&lt;span style=&quot;text-wrap-mode: nowrap;&quot;&gt;Trip&lt;/span&gt;" style="shape=folder;fontStyle=1;spacingTop=10;tabWidth=40;tabHeight=14;tabPosition=left;html=1;whiteSpace=wrap;" vertex="1" parent="1">
          <mxGeometry x="595" y="406" width="135" height="50" as="geometry" />
        </mxCell>
        <mxCell id="YYvj3fiJszDH4ES1wDcn-45" value="Delete_&lt;span style=&quot;text-wrap-mode: nowrap;&quot;&gt;Trip&lt;/span&gt;" style="shape=folder;fontStyle=1;spacingTop=10;tabWidth=40;tabHeight=14;tabPosition=left;html=1;whiteSpace=wrap;" vertex="1" parent="1">
          <mxGeometry x="595" y="476" width="135" height="50" as="geometry" />
        </mxCell>
        <mxCell id="YYvj3fiJszDH4ES1wDcn-46" value="Edit_&lt;span style=&quot;text-wrap-mode: nowrap;&quot;&gt;Trip&lt;/span&gt;" style="shape=folder;fontStyle=1;spacingTop=10;tabWidth=40;tabHeight=14;tabPosition=left;html=1;whiteSpace=wrap;" vertex="1" parent="1">
          <mxGeometry x="595" y="546" width="135" height="50" as="geometry" />
        </mxCell>
        <mxCell id="YYvj3fiJszDH4ES1wDcn-47" value="View_&lt;span style=&quot;text-wrap-mode: nowrap;&quot;&gt;Trip&lt;/span&gt;" style="shape=folder;fontStyle=1;spacingTop=10;tabWidth=40;tabHeight=14;tabPosition=left;html=1;whiteSpace=wrap;" vertex="1" parent="1">
          <mxGeometry x="595" y="616" width="135" height="50" as="geometry" />
        </mxCell>
        <mxCell id="YYvj3fiJszDH4ES1wDcn-55" style="edgeStyle=orthogonalEdgeStyle;rounded=0;orthogonalLoop=1;jettySize=auto;html=1;entryX=0.543;entryY=0.068;entryDx=0;entryDy=0;entryPerimeter=0;" edge="1" parent="1" source="YYvj3fiJszDH4ES1wDcn-3" target="YYvj3fiJszDH4ES1wDcn-19">
          <mxGeometry relative="1" as="geometry">
            <Array as="points">
              <mxPoint x="140" y="330" />
              <mxPoint x="200" y="330" />
              <mxPoint x="200" y="490" />
              <mxPoint x="177" y="490" />
            </Array>
          </mxGeometry>
        </mxCell>
        <mxCell id="YYvj3fiJszDH4ES1wDcn-56" style="edgeStyle=orthogonalEdgeStyle;rounded=0;orthogonalLoop=1;jettySize=auto;html=1;entryX=0.375;entryY=0.053;entryDx=0;entryDy=0;entryPerimeter=0;" edge="1" parent="1" source="YYvj3fiJszDH4ES1wDcn-15" target="YYvj3fiJszDH4ES1wDcn-19">
          <mxGeometry relative="1" as="geometry" />
        </mxCell>
        <mxCell id="YYvj3fiJszDH4ES1wDcn-57" style="edgeStyle=orthogonalEdgeStyle;rounded=0;orthogonalLoop=1;jettySize=auto;html=1;exitX=0.5;exitY=1;exitDx=0;exitDy=0;exitPerimeter=0;entryX=-0.006;entryY=0.622;entryDx=0;entryDy=0;entryPerimeter=0;" edge="1" parent="1" source="YYvj3fiJszDH4ES1wDcn-19" target="YYvj3fiJszDH4ES1wDcn-23">
          <mxGeometry relative="1" as="geometry" />
        </mxCell>
        <mxCell id="YYvj3fiJszDH4ES1wDcn-59" style="edgeStyle=orthogonalEdgeStyle;rounded=0;orthogonalLoop=1;jettySize=auto;html=1;entryX=1.008;entryY=0.425;entryDx=0;entryDy=0;entryPerimeter=0;" edge="1" parent="1" source="YYvj3fiJszDH4ES1wDcn-7" target="YYvj3fiJszDH4ES1wDcn-3">
          <mxGeometry relative="1" as="geometry" />
        </mxCell>
        <mxCell id="YYvj3fiJszDH4ES1wDcn-60" style="edgeStyle=orthogonalEdgeStyle;rounded=0;orthogonalLoop=1;jettySize=auto;html=1;entryX=0.515;entryY=0.088;entryDx=0;entryDy=0;entryPerimeter=0;" edge="1" parent="1" source="YYvj3fiJszDH4ES1wDcn-7" target="YYvj3fiJszDH4ES1wDcn-23">
          <mxGeometry relative="1" as="geometry">
            <Array as="points">
              <mxPoint x="421" y="300" />
              <mxPoint x="480" y="300" />
              <mxPoint x="480" y="680" />
              <mxPoint x="402" y="680" />
            </Array>
          </mxGeometry>
        </mxCell>
        <mxCell id="YYvj3fiJszDH4ES1wDcn-62" style="edgeStyle=orthogonalEdgeStyle;rounded=0;orthogonalLoop=1;jettySize=auto;html=1;entryX=0.592;entryY=1.015;entryDx=0;entryDy=0;entryPerimeter=0;" edge="1" parent="1" source="YYvj3fiJszDH4ES1wDcn-23" target="YYvj3fiJszDH4ES1wDcn-19">
          <mxGeometry relative="1" as="geometry">
            <Array as="points">
              <mxPoint x="185" y="850" />
            </Array>
          </mxGeometry>
        </mxCell>
        <mxCell id="YYvj3fiJszDH4ES1wDcn-67" style="edgeStyle=orthogonalEdgeStyle;rounded=0;orthogonalLoop=1;jettySize=auto;html=1;entryX=1.02;entryY=0.682;entryDx=0;entryDy=0;entryPerimeter=0;" edge="1" parent="1" source="YYvj3fiJszDH4ES1wDcn-31" target="YYvj3fiJszDH4ES1wDcn-19">
          <mxGeometry relative="1" as="geometry">
            <Array as="points">
              <mxPoint x="660" y="710" />
            </Array>
          </mxGeometry>
        </mxCell>
        <mxCell id="YYvj3fiJszDH4ES1wDcn-68" style="edgeStyle=orthogonalEdgeStyle;rounded=0;orthogonalLoop=1;jettySize=auto;html=1;entryX=0.5;entryY=0.031;entryDx=0;entryDy=0;entryPerimeter=0;" edge="1" parent="1" source="YYvj3fiJszDH4ES1wDcn-35" target="YYvj3fiJszDH4ES1wDcn-31">
          <mxGeometry relative="1" as="geometry" />
        </mxCell>
        <mxCell id="YYvj3fiJszDH4ES1wDcn-70" style="edgeStyle=orthogonalEdgeStyle;rounded=0;orthogonalLoop=1;jettySize=auto;html=1;entryX=1.013;entryY=0.622;entryDx=0;entryDy=0;entryPerimeter=0;" edge="1" parent="1" source="YYvj3fiJszDH4ES1wDcn-35" target="YYvj3fiJszDH4ES1wDcn-23">
          <mxGeometry relative="1" as="geometry">
            <Array as="points">
              <mxPoint x="520" y="170" />
              <mxPoint x="520" y="870" />
            </Array>
          </mxGeometry>
        </mxCell>
        <mxCell id="YYvj3fiJszDH4ES1wDcn-71" style="edgeStyle=orthogonalEdgeStyle;rounded=0;orthogonalLoop=1;jettySize=auto;html=1;entryX=0.998;entryY=0.667;entryDx=0;entryDy=0;entryPerimeter=0;exitX=0.499;exitY=0.068;exitDx=0;exitDy=0;exitPerimeter=0;" edge="1" parent="1" source="YYvj3fiJszDH4ES1wDcn-3" target="YYvj3fiJszDH4ES1wDcn-27">
          <mxGeometry relative="1" as="geometry">
            <Array as="points">
              <mxPoint x="140" y="10" />
              <mxPoint x="763" y="10" />
              <mxPoint x="763" y="882" />
            </Array>
          </mxGeometry>
        </mxCell>
      </root>
    </mxGraphModel>
  </diagram>
</mxfile>
